<svg viewBox="0 0 1504 323" fill="#0F3A50" xmlns="http://www.w3.org/2000/svg" class="max-w-[112px]">
  <path
    d="M277.16 122.4C274.43 119.67 273.06 116.33 273.06 112.37C273.06 108.41 274.43 105.08 277.16 102.35C279.89 99.61 283.23 98.25 287.19 98.25C291.15 98.25 294.21 99.62 296.87 102.35C299.53 105.08 300.86 108.43 300.86 112.37C300.86 116.31 299.53 119.66 296.87 122.4C294.21 125.13 290.98 126.5 287.19 126.5C283.4 126.5 279.9 125.13 277.16 122.4ZM297.21 146.78V271.64H276.48V146.78H297.21Z">
  </path>
  <path
    d="M421.49 158.28C430.91 167.47 435.62 180.72 435.62 198.04V271.63H415.11V201C415.11 188.55 411.99 179.01 405.77 172.41C399.54 165.8 391.04 162.5 380.25 162.5C369.46 162.5 360.62 165.92 354.16 172.75C347.7 179.59 344.48 189.54 344.48 202.6V271.64H323.75V146.78H344.48V164.55C348.58 158.17 354.16 153.24 361.23 149.74C368.29 146.25 376.08 144.5 384.58 144.5C399.77 144.5 412.07 149.1 421.49 158.29V158.28Z">
  </path>
  <path
    d="M557.45 158.28C566.87 167.47 571.58 180.72 571.58 198.04V271.63H551.07V201C551.07 188.55 547.95 179.01 541.73 172.41C535.5 165.8 527 162.5 516.21 162.5C505.42 162.5 496.58 165.92 490.12 172.75C483.66 179.59 480.44 189.54 480.44 202.6V271.64H459.71V146.78H480.44V164.55C484.54 158.17 490.12 153.24 497.19 149.74C504.25 146.25 512.04 144.5 520.54 144.5C535.73 144.5 548.03 149.1 557.45 158.29V158.28Z">
  </path>
  <path
    d="M626.47 265.71C616.98 260.39 609.53 252.84 604.14 243.04C598.75 233.24 596.05 221.89 596.05 208.98C596.05 196.07 598.82 184.94 604.37 175.14C609.91 165.34 617.47 157.82 627.04 152.59C636.61 147.35 647.32 144.73 659.17 144.73C671.02 144.73 681.73 147.35 691.3 152.59C700.87 157.83 708.42 165.31 713.97 175.03C719.51 184.75 722.29 196.07 722.29 208.98C722.29 221.89 719.44 233.24 713.75 243.04C708.05 252.84 700.34 260.39 690.62 265.71C680.9 271.03 670.11 273.69 658.27 273.69C646.43 273.69 635.98 271.03 626.49 265.71H626.47ZM679.22 250.22C685.75 246.73 691.03 241.49 695.05 234.5C699.07 227.52 701.09 219.01 701.09 208.98C701.09 198.95 699.11 190.45 695.17 183.46C691.22 176.48 686.06 171.27 679.68 167.85C673.3 164.43 666.39 162.72 658.95 162.72C651.51 162.72 644.4 164.43 638.1 167.85C631.8 171.27 626.74 176.47 622.95 183.46C619.15 190.45 617.25 198.95 617.25 208.98C617.25 219.01 619.11 227.74 622.83 234.73C626.55 241.72 631.52 246.92 637.75 250.34C643.98 253.76 650.81 255.47 658.26 255.47C665.71 255.47 672.69 253.73 679.22 250.23V250.22Z">
  </path>
  <path
    d="M768.08 268.79C760.48 265.53 754.48 260.97 750.08 255.12C745.67 249.27 743.24 242.55 742.79 234.96H764.21C764.82 241.19 767.74 246.28 772.98 250.22C778.22 254.17 785.09 256.14 793.6 256.14C801.5 256.14 807.73 254.4 812.28 250.9C816.84 247.41 819.12 243 819.12 237.68C819.12 232.36 816.69 228.15 811.83 225.49C806.97 222.83 799.45 220.21 789.27 217.63C780 215.2 772.44 212.73 766.6 210.23C760.75 207.72 755.74 204 751.56 199.06C747.38 194.13 745.29 187.63 745.29 179.58C745.29 173.2 747.19 167.36 750.99 162.04C754.79 156.72 760.18 152.51 767.17 149.39C774.15 146.28 782.13 144.72 791.09 144.72C804.91 144.72 816.07 148.22 824.58 155.2C833.09 162.19 837.64 171.76 838.25 183.91H817.52C817.06 177.38 814.44 172.14 809.66 168.19C804.88 164.24 798.46 162.27 790.41 162.27C782.97 162.27 777.04 163.87 772.64 167.06C768.23 170.25 766.03 174.43 766.03 179.59C766.03 183.69 767.36 187.07 770.02 189.73C772.68 192.39 776.02 194.51 780.05 196.11C784.07 197.7 789.66 199.49 796.8 201.46C805.76 203.89 813.05 206.28 818.67 208.64C824.29 211 829.11 214.53 833.14 219.23C837.16 223.94 839.25 230.09 839.41 237.69C839.41 244.53 837.51 250.68 833.71 256.15C829.91 261.62 824.56 265.91 817.65 269.02C810.74 272.13 802.8 273.69 793.84 273.69C784.27 273.69 775.69 272.05 768.09 268.79H768.08Z">
  </path>
  <path
    d="M868.55 175.14C873.71 165.5 880.89 158.02 890.08 152.7C899.27 147.39 909.79 144.73 921.64 144.73C936.98 144.73 949.63 148.45 959.58 155.9C969.53 163.34 976.1 173.67 979.29 186.89H956.96C954.83 179.3 950.69 173.3 944.54 168.89C938.39 164.49 930.76 162.28 921.64 162.28C909.79 162.28 900.22 166.35 892.93 174.47C885.64 182.6 881.99 194.1 881.99 208.99C881.99 223.88 885.64 235.65 892.93 243.85C900.22 252.05 909.79 256.15 921.64 256.15C930.75 256.15 938.35 254.03 944.42 249.77C950.49 245.52 954.67 239.44 956.95 231.54H979.28C975.94 244.3 969.25 254.52 959.23 262.18C949.2 269.85 936.67 273.69 921.64 273.69C909.79 273.69 899.27 271.03 890.08 265.71C880.89 260.39 873.71 252.88 868.55 243.15C863.38 233.43 860.8 222.04 860.8 208.97C860.8 195.9 863.38 184.78 868.55 175.13V175.14Z">
  </path>
  <path
    d="M1043.2 150.42C1049.96 146.47 1058.2 144.5 1067.92 144.5V165.92H1062.45C1039.21 165.92 1027.59 178.53 1027.59 203.74V271.64H1006.86V146.78H1027.59V167.06C1031.24 159.92 1036.44 154.38 1043.2 150.43V150.42Z">
  </path>
  <path
    d="M1093.81 122.4C1091.08 119.67 1089.71 116.33 1089.71 112.37C1089.71 108.41 1091.08 105.08 1093.81 102.35C1096.54 99.61 1099.88 98.25 1103.84 98.25C1107.8 98.25 1110.86 99.62 1113.52 102.35C1116.18 105.08 1117.51 108.43 1117.51 112.37C1117.51 116.31 1116.18 119.66 1113.52 122.4C1110.86 125.13 1107.63 126.5 1103.84 126.5C1100.05 126.5 1096.55 125.13 1093.81 122.4ZM1113.86 146.78V271.64H1093.13V146.78H1113.86Z">
  </path>
  <path
    d="M1186.96 151.9C1195.08 147.12 1204.54 144.72 1215.33 144.72C1226.12 144.72 1236.48 147.38 1245.52 152.69C1254.56 158.01 1261.66 165.49 1266.82 175.13C1271.98 184.78 1274.57 195.98 1274.57 208.74C1274.57 221.5 1271.99 232.59 1266.82 242.46C1261.66 252.34 1254.55 260 1245.52 265.47C1236.48 270.94 1226.42 273.67 1215.33 273.67C1204.24 273.67 1195.32 271.28 1187.19 266.49C1179.06 261.71 1172.87 255.75 1168.62 248.6V321.76H1147.89V146.76H1168.62V169.77C1172.72 162.63 1178.83 156.67 1186.96 151.88V151.9ZM1247.68 184.14C1243.88 177.15 1238.75 171.84 1232.3 168.19C1225.84 164.55 1218.74 162.72 1211 162.72C1203.26 162.72 1196.38 164.58 1189.92 168.3C1183.46 172.02 1178.3 177.41 1174.43 184.48C1170.56 191.54 1168.62 199.71 1168.62 208.97C1168.62 218.23 1170.56 226.63 1174.43 233.69C1178.3 240.75 1183.47 246.15 1189.92 249.87C1196.37 253.59 1203.4 255.45 1211 255.45C1218.6 255.45 1225.85 253.59 1232.3 249.87C1238.75 246.15 1243.88 240.76 1247.68 233.69C1251.48 226.63 1253.38 218.31 1253.38 208.74C1253.38 199.17 1251.48 191.12 1247.68 184.13V184.14Z">
  </path>
  <path
    d="M1327.2 163.87V237.46C1327.2 243.54 1328.49 247.83 1331.07 250.33C1333.65 252.84 1338.13 254.09 1344.51 254.09H1359.78V271.63H1341.1C1329.56 271.63 1320.9 268.97 1315.13 263.65C1309.36 258.33 1306.47 249.6 1306.47 237.45V163.86H1290.29V146.77H1306.47V115.33H1327.2V146.77H1359.78V163.86H1327.2V163.87Z">
  </path>
  <path
    d="M1384.84 175.14C1390 165.5 1397.1 158.02 1406.14 152.7C1415.18 147.39 1425.24 144.73 1436.33 144.73C1447.42 144.73 1456.76 147.09 1464.81 151.79C1472.86 156.5 1478.86 162.42 1482.81 169.56V146.78H1503.77V271.64H1482.81V248.4C1478.71 255.69 1472.59 261.73 1464.47 266.51C1456.34 271.29 1446.89 273.69 1436.1 273.69C1425.31 273.69 1414.99 270.96 1406.02 265.49C1397.06 260.02 1389.99 252.35 1384.83 242.48C1379.66 232.61 1377.08 221.37 1377.08 208.76C1377.08 196.15 1379.66 184.8 1384.83 175.15L1384.84 175.14ZM1477.12 184.37C1473.32 177.39 1468.2 172.03 1461.74 168.31C1455.28 164.59 1448.18 162.73 1440.44 162.73C1432.7 162.73 1425.63 164.55 1419.25 168.2C1412.87 171.84 1407.78 177.16 1403.98 184.15C1400.18 191.14 1398.28 199.34 1398.28 208.76C1398.28 218.18 1400.18 226.65 1403.98 233.71C1407.78 240.77 1412.87 246.17 1419.25 249.89C1425.63 253.61 1432.69 255.47 1440.44 255.47C1448.19 255.47 1455.29 253.61 1461.74 249.89C1468.19 246.17 1473.32 240.78 1477.12 233.71C1480.92 226.65 1482.82 218.41 1482.82 208.99C1482.82 199.57 1480.92 191.37 1477.12 184.38V184.37Z">
  </path>
  <path
    d="M142.91 233.4C111.96 215.38 76.7599 204.42 39.2399 201.34C38.9499 201.32 38.7499 201.62 38.8699 201.88L45.4499 215.38C46.3099 217.13 47.9199 218.52 49.8499 218.79C81.3599 223.17 111.38 234.05 137.48 249.82C137.66 249.93 137.9 249.86 138 249.67L144.12 237.55C144.87 236.06 144.34 234.23 142.9 233.4H142.91Z"
    fill="#2B8AAF"></path>
  <path
    d="M143.18 233.57C141.13 232.32 139.83 231.64 139.83 231.64C139.83 231.64 141.91 233.2 142.04 234.35C142.21 235.8 140.28 236.33 140.28 236.33L131.91 238.46C112.97 242.84 93.04 245.22 72.93 245.22C69.67 245.22 66.32 245.16 63.04 245.04C61.81 244.99 61.32 246.16 61.87 247.26L67.81 259.6C68.53 261.04 69.83 261.93 71.44 261.94C71.94 261.94 72.43 261.94 72.93 261.94C93.69 261.94 113.95 259.63 133.41 255.26C134.7 254.97 135.79 254.11 136.38 252.93L142.63 240.55L143.44 238.94L144.39 237.05C144.39 237.05 145.4 234.93 143.17 233.57H143.18Z">
  </path>
  <path
    d="M109.5 306.38L78.9099 245.15C72.1299 245.28 66.5399 245.07 63.3299 244.9C62.0099 244.83 61.1099 246.21 61.6999 247.4L98.1599 320.04C99.0899 321.89 101.72 321.89 102.65 320.04L109.5 306.39V306.38Z">
  </path>
  <path
    d="M117.82 283.44C105.93 285.23 93.6799 286.34 81.4099 286.69L98.7299 321.18C99.4199 322.55 101.38 322.55 102.07 321.18L119.71 286.03C120.37 284.72 119.28 283.22 117.82 283.44Z">
  </path>
  <path
    d="M24.53 173.4L38.43 201.1L49.29 202.11C51.6 202.28 54.36 202.47 57.61 202.66C62.66 203.01 67.71 203.19 72.85 203.19C99.03 203.19 124.58 198.39 147.85 189.89C149.19 189.4 150.28 188.41 150.92 187.14L170.54 147.92C175.91 137.19 179.99 125.84 182.42 114.09C183.37 109.49 184.04 104.93 184.04 101.24C184.04 40.19 118.32 -6.77008 54.85 30.9499C44.86 36.8899 36.98 45.68 30.58 55.16C12.66 81.7 13.58 114.04 25.11 137.73L24.93 137.39L25.6 138.74C25.74 139.01 25.87 139.29 26.01 139.56L44.48 176.21C35.24 174.99 30.8 174.4 27.52 173.92C25.57 173.63 23.88 172.39 23.03 170.61L21.2 166.8L10.42 145.32L10.32 145.12C3.86999 131.86 -0.0100098 116.98 -0.0100098 101.24C-0.0100098 28.84 78.13 -26.7701 151.67 14.8399C165.21 22.4999 178.39 35.21 186.6 49.9C204.33 81.63 204.03 114.32 192.68 140.78L192.47 141.25L173.69 178.48L162.62 200.53C162.01 201.75 160.98 202.71 159.72 203.21C132.86 213.99 103.52 219.92 72.85 219.92C65.16 219.92 57.56 219.55 50.05 218.82C48.14 218.63 46.46 217.45 45.61 215.73L38.43 201.12L24.53 173.4Z">
  </path>
</svg>